<svg width="1200" height="900" viewBox="0 0 1200 900" fill="none" xmlns="http://www.w3.org/2000/svg">
  <rect width="1200" height="900" fill="#08111E"/>
  <g opacity="0.35">
    <path d="M160 188L504 344L824 204L1020 366L894 640L592 744L288 618L160 188Z" stroke="#5D96FF" stroke-width="3"/>
    <path d="M160 188L592 744" stroke="#5D96FF" stroke-width="2"/>
    <path d="M504 344L894 640" stroke="#5D96FF" stroke-width="2"/>
    <path d="M824 204L288 618" stroke="#5D96FF" stroke-width="2"/>
  </g>
  <circle cx="160" cy="188" r="24" fill="#7FB2FF"/>
  <circle cx="504" cy="344" r="24" fill="#7FB2FF"/>
  <circle cx="824" cy="204" r="24" fill="#7FB2FF"/>
  <circle cx="1020" cy="366" r="24" fill="#7FB2FF"/>
  <circle cx="894" cy="640" r="24" fill="#7FB2FF"/>
  <circle cx="592" cy="744" r="24" fill="#7FB2FF"/>
  <circle cx="288" cy="618" r="24" fill="#7FB2FF"/>
  <rect x="182" y="96" width="836" height="708" rx="40" fill="none" stroke="#20324F"/>
  <text x="182" y="76" fill="#90B8FF" font-family="Arial, sans-serif" font-size="22" letter-spacing="4">NETWORK MAP / PLACEHOLDER</text>
</svg>
